{
    "asset" : {
        "generator" : "Khronos glTF Blender I/O v1.6.16",
        "version" : "2.0"
    },
    "scene" : 0,
    "scenes" : [
        {
            "name" : "Scene",
            "nodes" : [
                0
            ]
        }
    ],
    "nodes" : [
        {
            "mesh" : 0,
            "name" : "endgoal_pole"
        }
    ],
    "materials" : [
        {
            "doubleSided" : true,
            "name" : "Material.006",
            "pbrMetallicRoughness" : {
                "baseColorFactor" : [
                    0.20186705887317657,
                    0.20186705887317657,
                    0.20186705887317657,
                    1
                ],
                "metallicFactor" : 0,
                "roughnessFactor" : 0.5
            }
        },
        {
            "doubleSided" : true,
            "name" : "Material.007",
            "pbrMetallicRoughness" : {
                "metallicFactor" : 0,
                "roughnessFactor" : 0.5
            }
        },
        {
            "doubleSided" : true,
            "name" : "Material.008",
            "pbrMetallicRoughness" : {
                "baseColorFactor" : [
                    0.02924288995563984,
                    0.02924288995563984,
                    0.02924288995563984,
                    1
                ],
                "metallicFactor" : 0,
                "roughnessFactor" : 0.5
            }
        },
        {
            "doubleSided" : true,
            "name" : "Material.009",
            "pbrMetallicRoughness" : {
                "baseColorFactor" : [
                    0.8000000715255737,
                    0.4229389727115631,
                    0.0490686371922493,
                    1
                ],
                "metallicFactor" : 0,
                "roughnessFactor" : 0.5
            }
        },
        {
            "doubleSided" : true,
            "name" : "Material.010",
            "pbrMetallicRoughness" : {
                "baseColorFactor" : [
                    0.8000000715255737,
                    0.07364892214536667,
                    0.05081993341445923,
                    1
                ],
                "metallicFactor" : 0,
                "roughnessFactor" : 0.5
            }
        }
    ],
    "meshes" : [
        {
            "name" : "Cylinder",
            "primitives" : [
                {
                    "attributes" : {
                        "POSITION" : 0,
                        "NORMAL" : 1,
                        "TEXCOORD_0" : 2
                    },
                    "indices" : 3,
                    "material" : 0
                },
                {
                    "attributes" : {
                        "POSITION" : 4,
                        "NORMAL" : 5,
                        "TEXCOORD_0" : 6
                    },
                    "indices" : 7,
                    "material" : 1
                },
                {
                    "attributes" : {
                        "POSITION" : 8,
                        "NORMAL" : 9,
                        "TEXCOORD_0" : 10
                    },
                    "indices" : 11,
                    "material" : 2
                },
                {
                    "attributes" : {
                        "POSITION" : 12,
                        "NORMAL" : 13,
                        "TEXCOORD_0" : 14
                    },
                    "indices" : 15,
                    "material" : 3
                },
                {
                    "attributes" : {
                        "POSITION" : 16,
                        "NORMAL" : 17,
                        "TEXCOORD_0" : 18
                    },
                    "indices" : 19,
                    "material" : 4
                }
            ]
        }
    ],
    "accessors" : [
        {
            "bufferView" : 0,
            "componentType" : 5126,
            "count" : 242,
            "max" : [
                1,
                9.497326850891113,
                1
            ],
            "min" : [
                -1,
                -0.8275997638702393,
                -1
            ],
            "type" : "VEC3"
        },
        {
            "bufferView" : 1,
            "componentType" : 5126,
            "count" : 242,
            "type" : "VEC3"
        },
        {
            "bufferView" : 2,
            "componentType" : 5126,
            "count" : 242,
            "type" : "VEC2"
        },
        {
            "bufferView" : 3,
            "componentType" : 5123,
            "count" : 396,
            "type" : "SCALAR"
        },
        {
            "bufferView" : 4,
            "componentType" : 5126,
            "count" : 82,
            "max" : [
                -0.16954615712165833,
                9.497326850891113,
                0.5167331099510193
            ],
            "min" : [
                -2.690359115600586,
                7.499592304229736,
                -0.5167328119277954
            ],
            "type" : "VEC3"
        },
        {
            "bufferView" : 5,
            "componentType" : 5126,
            "count" : 82,
            "type" : "VEC3"
        },
        {
            "bufferView" : 6,
            "componentType" : 5126,
            "count" : 82,
            "type" : "VEC2"
        },
        {
            "bufferView" : 7,
            "componentType" : 5123,
            "count" : 132,
            "type" : "SCALAR"
        },
        {
            "bufferView" : 8,
            "componentType" : 5126,
            "count" : 114,
            "max" : [
                1,
                9.497326850891113,
                1
            ],
            "min" : [
                -2.690359115600586,
                1,
                -1
            ],
            "type" : "VEC3"
        },
        {
            "bufferView" : 9,
            "componentType" : 5126,
            "count" : 114,
            "type" : "VEC3"
        },
        {
            "bufferView" : 10,
            "componentType" : 5126,
            "count" : 114,
            "type" : "VEC2"
        },
        {
            "bufferView" : 11,
            "componentType" : 5123,
            "count" : 180,
            "type" : "SCALAR"
        },
        {
            "bufferView" : 12,
            "componentType" : 5126,
            "count" : 212,
            "max" : [
                1,
                9.895291328430176,
                1
            ],
            "min" : [
                -1,
                -0.40662795305252075,
                -1
            ],
            "type" : "VEC3"
        },
        {
            "bufferView" : 13,
            "componentType" : 5126,
            "count" : 212,
            "type" : "VEC3"
        },
        {
            "bufferView" : 14,
            "componentType" : 5126,
            "count" : 212,
            "type" : "VEC2"
        },
        {
            "bufferView" : 15,
            "componentType" : 5123,
            "count" : 348,
            "type" : "SCALAR"
        },
        {
            "bufferView" : 16,
            "componentType" : 5126,
            "count" : 188,
            "max" : [
                0.7309347987174988,
                10.088632583618164,
                0.7309347987174988
            ],
            "min" : [
                -0.7309347987174988,
                -1.0151063203811646,
                -0.7309347987174988
            ],
            "type" : "VEC3"
        },
        {
            "bufferView" : 17,
            "componentType" : 5126,
            "count" : 188,
            "type" : "VEC3"
        },
        {
            "bufferView" : 18,
            "componentType" : 5126,
            "count" : 188,
            "type" : "VEC2"
        },
        {
            "bufferView" : 19,
            "componentType" : 5123,
            "count" : 324,
            "type" : "SCALAR"
        }
    ],
    "bufferViews" : [
        {
            "buffer" : 0,
            "byteLength" : 2904,
            "byteOffset" : 0
        },
        {
            "buffer" : 0,
            "byteLength" : 2904,
            "byteOffset" : 2904
        },
        {
            "buffer" : 0,
            "byteLength" : 1936,
            "byteOffset" : 5808
        },
        {
            "buffer" : 0,
            "byteLength" : 792,
            "byteOffset" : 7744
        },
        {
            "buffer" : 0,
            "byteLength" : 984,
            "byteOffset" : 8536
        },
        {
            "buffer" : 0,
            "byteLength" : 984,
            "byteOffset" : 9520
        },
        {
            "buffer" : 0,
            "byteLength" : 656,
            "byteOffset" : 10504
        },
        {
            "buffer" : 0,
            "byteLength" : 264,
            "byteOffset" : 11160
        },
        {
            "buffer" : 0,
            "byteLength" : 1368,
            "byteOffset" : 11424
        },
        {
            "buffer" : 0,
            "byteLength" : 1368,
            "byteOffset" : 12792
        },
        {
            "buffer" : 0,
            "byteLength" : 912,
            "byteOffset" : 14160
        },
        {
            "buffer" : 0,
            "byteLength" : 360,
            "byteOffset" : 15072
        },
        {
            "buffer" : 0,
            "byteLength" : 2544,
            "byteOffset" : 15432
        },
        {
            "buffer" : 0,
            "byteLength" : 2544,
            "byteOffset" : 17976
        },
        {
            "buffer" : 0,
            "byteLength" : 1696,
            "byteOffset" : 20520
        },
        {
            "buffer" : 0,
            "byteLength" : 696,
            "byteOffset" : 22216
        },
        {
            "buffer" : 0,
            "byteLength" : 2256,
            "byteOffset" : 22912
        },
        {
            "buffer" : 0,
            "byteLength" : 2256,
            "byteOffset" : 25168
        },
        {
            "buffer" : 0,
            "byteLength" : 1504,
            "byteOffset" : 27424
        },
        {
            "buffer" : 0,
            "byteLength" : 648,
            "byteOffset" : 28928
        }
    ],
    "buffers" : [
        {
            "byteLength" : 29576,
            "uri" : "data:application/octet-stream;base64,"
        }
    ]
}
