{
    "asset" : {
        "generator" : "Khronos glTF Blender I/O v1.6.16",
        "version" : "2.0"
    },
    "scene" : 0,
    "scenes" : [
        {
            "name" : "Scene",
            "nodes" : [
                0
            ]
        }
    ],
    "nodes" : [
        {
            "mesh" : 0,
            "name" : "checkpoint_pole"
        }
    ],
    "materials" : [
        {
            "doubleSided" : true,
            "name" : "Material.002",
            "pbrMetallicRoughness" : {
                "baseColorFactor" : [
                    0.8000000715255737,
                    0.009379168041050434,
                    0,
                    1
                ],
                "metallicFactor" : 0,
                "roughnessFactor" : 0.5
            }
        },
        {
            "doubleSided" : true,
            "name" : "Material.003",
            "pbrMetallicRoughness" : {
                "baseColorFactor" : [
                    0.5775497555732727,
                    0.8000000715255737,
                    0.7724841237068176,
                    1
                ],
                "metallicFactor" : 0,
                "roughnessFactor" : 0.5
            }
        },
        {
            "doubleSided" : true,
            "name" : "Material.004",
            "pbrMetallicRoughness" : {
                "baseColorFactor" : [
                    0.21292473375797272,
                    0.3311355412006378,
                    0.49584144353866577,
                    1
                ],
                "metallicFactor" : 0,
                "roughnessFactor" : 0.5
            }
        },
        {
            "doubleSided" : true,
            "name" : "Material.005",
            "pbrMetallicRoughness" : {
                "baseColorFactor" : [
                    1,
                    0.4323561191558838,
                    0.030184298753738403,
                    1
                ],
                "metallicFactor" : 0,
                "roughnessFactor" : 0.5
            }
        }
    ],
    "meshes" : [
        {
            "name" : "Cube.001",
            "primitives" : [
                {
                    "attributes" : {
                        "POSITION" : 0,
                        "NORMAL" : 1,
                        "TEXCOORD_0" : 2
                    },
                    "indices" : 3,
                    "material" : 0
                },
                {
                    "attributes" : {
                        "POSITION" : 4,
                        "NORMAL" : 5,
                        "TEXCOORD_0" : 6
                    },
                    "indices" : 7,
                    "material" : 1
                },
                {
                    "attributes" : {
                        "POSITION" : 8,
                        "NORMAL" : 9,
                        "TEXCOORD_0" : 10
                    },
                    "indices" : 11,
                    "material" : 2
                },
                {
                    "attributes" : {
                        "POSITION" : 12,
                        "NORMAL" : 13,
                        "TEXCOORD_0" : 14
                    },
                    "indices" : 15,
                    "material" : 3
                }
            ]
        }
    ],
    "accessors" : [
        {
            "bufferView" : 0,
            "componentType" : 5126,
            "count" : 76,
            "max" : [
                0.5120118260383606,
                8.799293518066406,
                0.5120118260383606
            ],
            "min" : [
                -2.7928273677825928,
                -1.1239099502563477,
                -0.5120118260383606
            ],
            "type" : "VEC3"
        },
        {
            "bufferView" : 1,
            "componentType" : 5126,
            "count" : 76,
            "type" : "VEC3"
        },
        {
            "bufferView" : 2,
            "componentType" : 5126,
            "count" : 76,
            "type" : "VEC2"
        },
        {
            "bufferView" : 3,
            "componentType" : 5123,
            "count" : 156,
            "type" : "SCALAR"
        },
        {
            "bufferView" : 4,
            "componentType" : 5126,
            "count" : 284,
            "max" : [
                1,
                9.018385887145996,
                1
            ],
            "min" : [
                -1,
                -1.1239099502563477,
                -1
            ],
            "type" : "VEC3"
        },
        {
            "bufferView" : 5,
            "componentType" : 5126,
            "count" : 284,
            "type" : "VEC3"
        },
        {
            "bufferView" : 6,
            "componentType" : 5126,
            "count" : 284,
            "type" : "VEC2"
        },
        {
            "bufferView" : 7,
            "componentType" : 5123,
            "count" : 552,
            "type" : "SCALAR"
        },
        {
            "bufferView" : 8,
            "componentType" : 5126,
            "count" : 176,
            "max" : [
                1,
                7.769571304321289,
                1
            ],
            "min" : [
                -1,
                -0.6006442308425903,
                -1
            ],
            "type" : "VEC3"
        },
        {
            "bufferView" : 9,
            "componentType" : 5126,
            "count" : 176,
            "type" : "VEC3"
        },
        {
            "bufferView" : 10,
            "componentType" : 5126,
            "count" : 176,
            "type" : "VEC2"
        },
        {
            "bufferView" : 11,
            "componentType" : 5123,
            "count" : 384,
            "type" : "SCALAR"
        },
        {
            "bufferView" : 12,
            "componentType" : 5126,
            "count" : 16,
            "max" : [
                0.6804384589195251,
                0.8347913026809692,
                0.6804384589195251
            ],
            "min" : [
                -0.6804384589195251,
                -0.43543556332588196,
                -0.6804384589195251
            ],
            "type" : "VEC3"
        },
        {
            "bufferView" : 13,
            "componentType" : 5126,
            "count" : 16,
            "type" : "VEC3"
        },
        {
            "bufferView" : 14,
            "componentType" : 5126,
            "count" : 16,
            "type" : "VEC2"
        },
        {
            "bufferView" : 15,
            "componentType" : 5123,
            "count" : 24,
            "type" : "SCALAR"
        }
    ],
    "bufferViews" : [
        {
            "buffer" : 0,
            "byteLength" : 912,
            "byteOffset" : 0
        },
        {
            "buffer" : 0,
            "byteLength" : 912,
            "byteOffset" : 912
        },
        {
            "buffer" : 0,
            "byteLength" : 608,
            "byteOffset" : 1824
        },
        {
            "buffer" : 0,
            "byteLength" : 312,
            "byteOffset" : 2432
        },
        {
            "buffer" : 0,
            "byteLength" : 3408,
            "byteOffset" : 2744
        },
        {
            "buffer" : 0,
            "byteLength" : 3408,
            "byteOffset" : 6152
        },
        {
            "buffer" : 0,
            "byteLength" : 2272,
            "byteOffset" : 9560
        },
        {
            "buffer" : 0,
            "byteLength" : 1104,
            "byteOffset" : 11832
        },
        {
            "buffer" : 0,
            "byteLength" : 2112,
            "byteOffset" : 12936
        },
        {
            "buffer" : 0,
            "byteLength" : 2112,
            "byteOffset" : 15048
        },
        {
            "buffer" : 0,
            "byteLength" : 1408,
            "byteOffset" : 17160
        },
        {
            "buffer" : 0,
            "byteLength" : 768,
            "byteOffset" : 18568
        },
        {
            "buffer" : 0,
            "byteLength" : 192,
            "byteOffset" : 19336
        },
        {
            "buffer" : 0,
            "byteLength" : 192,
            "byteOffset" : 19528
        },
        {
            "buffer" : 0,
            "byteLength" : 128,
            "byteOffset" : 19720
        },
        {
            "buffer" : 0,
            "byteLength" : 48,
            "byteOffset" : 19848
        }
    ],
    "buffers" : [
        {
            "byteLength" : 19896,
            "uri" : "data:application/octet-stream;base64,"
        }
    ]
}
